<svg width="78" height="30" viewBox="0 0 78 30" fill="none" xmlns="http://www.w3.org/2000/svg">
<g clip-path="url(#clip0_1049_1133)">
<g clip-path="url(#clip1_1049_1133)">
<path d="M25.37 21.2585H18.9871L18.2579 25.4122H25.8123L25.2505 28.6336H13.6201L16.6263 11.2598H28.2806L27.7188 14.4931H20.1525L19.507 18.1567H25.9019L25.364 21.2585H25.37Z" fill="#5E5F61"/>
<path d="M27.9814 28.6336L30.9877 11.2598L36.51 11.2717C38.6914 11.2777 40.3171 11.6961 41.3928 12.5148C42.4686 13.3336 42.9587 14.4811 42.8631 15.9633C42.7435 17.7921 41.7395 19.0891 39.8569 19.8541C40.5322 20.0931 41.0581 20.5234 41.4347 21.151C41.8112 21.7725 41.9726 22.5256 41.9188 23.3981C41.8052 25.0776 41.1478 26.3685 39.9346 27.2769C38.7213 28.1854 37.0598 28.6396 34.9561 28.6396H27.9874L27.9814 28.6336ZM33.3484 21.2466L32.6193 25.4003L35.0637 25.4122C35.8287 25.4122 36.4622 25.221 36.9762 24.8445C37.4842 24.468 37.789 23.9659 37.8846 23.3384C38.1057 22.0116 37.5977 21.3183 36.3546 21.2585L33.3484 21.2466ZM33.8146 18.5033L35.733 18.5153C37.5081 18.4735 38.5002 17.7921 38.7153 16.4713C38.9066 15.1625 38.2312 14.505 36.6893 14.4991L34.5198 14.4871L33.8146 18.5093V18.5033Z" fill="#5E5F61"/>
<path d="M60.6616 11.2598L58.7311 22.5913C58.4502 24.5576 57.6434 26.1055 56.3047 27.2351C54.9659 28.3647 53.2746 28.9145 51.2425 28.8846C49.9755 28.8607 48.8818 28.5858 47.9494 28.0658C47.0171 27.5459 46.3298 26.8108 45.8935 25.8605C45.4512 24.9102 45.3018 23.8285 45.4453 22.6092L47.3757 11.2657H51.4816L49.5631 22.6331C49.5153 23.0336 49.5093 23.4101 49.5392 23.7687C49.581 24.3604 49.7663 24.8146 50.095 25.1433C50.4237 25.472 50.8899 25.6453 51.4995 25.6692C53.2506 25.723 54.3025 24.713 54.6611 22.6272L56.5975 11.2717H60.6795L60.6616 11.2598Z" fill="#5E5F61"/>
<path d="M69.0112 18.7784L73.4039 11.2599H77.9999L70.5053 22.5795L69.4654 28.6277H65.3117L66.4353 22.185L62.9629 11.2659L67.2122 11.2539L69.0112 18.7724V18.7784Z" fill="#5E5F61"/>
<mask id="mask0_1049_1133" style="mask-type:luminance" maskUnits="userSpaceOnUse" x="-1" y="-1" width="33" height="31">
<path d="M15.9448 10.6261H31.5795C31.5795 10.6261 28.8482 0.101348 16.7576 -0.000253229C4.67301 -0.0958781 0.579067 6.9206 0.184615 10.6261C-0.203861 14.3315 -0.598314 22.2445 5.74281 27.2588C5.74281 27.2588 10.5181 29.249 11.5939 29.5419L12.6637 29.8347L15.9448 10.632V10.6261Z" fill="white"/>
</mask>
<g mask="url(#mask0_1049_1133)">
<path d="M27.8564 14.9533C27.8564 21.8562 22.2623 27.4502 15.3594 27.4502C8.45648 27.4502 2.85645 21.8562 2.85645 14.9533C2.85645 8.05035 8.4505 2.4563 15.3534 2.4563C22.2563 2.4563 27.8504 8.05035 27.8504 14.9533H27.8564Z" stroke="#EBBB30" stroke-width="2.68945" stroke-miterlimit="10"/>
</g>
</g>
</g>
<defs>
<clipPath id="clip0_1049_1133">
<rect width="78" height="30" fill="white"/>
</clipPath>
<clipPath id="clip1_1049_1133">
<rect width="78" height="29.829" fill="white"/>
</clipPath>
</defs>
</svg>
